<svg xmlns="http://www.w3.org/2000/svg" version="1.1" xmlns:xlink="http://www.w3.org/1999/xlink" xmlns:svgjs="http://svgjs.dev/svgjs" viewBox="0 0 800 800"><defs><linearGradient x1="50%" y1="0%" x2="50%" y2="100%" id="ccchaos-grad"><stop stop-color="hsl(206, 75%, 49%)" stop-opacity="1" offset="0%"></stop><stop stop-color="hsl(331, 90%, 56%)" stop-opacity="1" offset="100%"></stop></linearGradient></defs><g stroke-width="2" stroke="url(#ccchaos-grad)" fill="none" stroke-linecap="round"><path d="M390.67 128.17C400.32 127.2 410.12 125.78 420.04 124.06 429.98 121.72 440.09 119.52 450.34 117.7 460.64 115.98 471.13 115.1 481.77 115.22 492.48 116.03 503.37 118.08 514.38 121.38 525.45 125.53 536.61 130.86 547.78 137.23 558.91 144.22 569.95 151.99 580.76 160.34 591.34 168.89 601.5 177.72 611.07 186.67 620.13 195.41 628.37 204.08 635.6 212.6 642.03 220.69 647.27 228.56 651.17 236.23 654.16 243.43 655.8 250.48 656.08 257.43 655.65 264 654.12 270.59 651.67 277.26 649.12 283.67 646.16 290.28 643.13 297.12 640.86 303.82 639.15 310.85 638.28 318.22 638.97 325.53 640.93 333.23 644.27 341.33 649.38 349.4 655.79 357.89 663.26 366.82 671.86 375.73 680.85 385.08 689.73 394.87 698.41 404.67 705.79 414.7 711.5 424.94 715.78 435.21 717.83 445.71 717.56 456.42 715.46 467.16 711.12 478.13 704.78 489.28 697.03 500.45 687.82 511.78 677.53 523.17 666.73 534.49 655.51 545.78 644.21 556.9 633.27 567.77 622.72 578.26 612.75 588.2 603.65 597.59 595.29 606.16 587.68 613.71 581.03 620.43 575.02 625.9 569.53 630 562.58 634.05 550.18 634.52 543.98 631.91 537.68 629.11 522.76 626.44 513.88 628.71 507.68 632.63 500.89 638.19 493.54 645.37 486.09 654.3 478.1 664.34 469.61 675.03 461.06 686.09 452.06 696.62 442.63 705.91 433.18 713.69 423.35 719.04 413.17 721.48 402.98 721.27 392.71 717.96 382.4 711.87 372.1 703.87 361.77 694.08 351.43 683.21 341.12 672.17 330.82 661.27 320.57 651.08 310.35 642.29 300.2 634.92 290.16 629.11 280.18 625.25 270.34 622.88 260.7 621.76 251.19 622.12 241.92 623.12 232.97 624.39 224.2 626.15 215.82 627.5 207.87 628.13 200.19 628.39 193 627.5 186.37 625.37 180.02 622.42 174.25 618.14 169.08 612.6 164.18 606.23 159.84 598.75 156.09 590.34 152.48 581.33 149.36 571.61 146.7 561.39 144.02 550.83 141.68 539.97 139.65 528.96 137.42 517.82 135.38 506.65 133.51 495.56 131.3 484.45 129.2 473.46 127.21 462.67 124.86 451.89 122.65 441.31 120.62 430.96 118.33 420.62 116.33 410.5 114.7 400.62 113.03 390.74 111.92 381.31 111.42 372.33 111.11 363.33 111.53 354.75 112.69 346.59 114.19 338.38 116.47 330.55 119.52 323.08 122.92 315.51 127.04 308.25 131.83 301.26 136.87 294.09 142.47 287.09 148.55 280.23 154.73 273.07 161.26 265.93 168.07 258.75 174.79 251.18 181.7 243.47 188.73 235.6 195.55 227.29 202.44 218.79 209.38 210.13 216.05 201.13 222.78 192.07 229.56 183.04 236.07 173.96 242.68 165.15 249.41 156.78 255.93 148.75 262.61 141.46 269.49 135.08 276.23 129.42 283.2 124.87 290.44 121.56 297.58 119.06 305.03 117.77 312.77 117.62 320.46 117.99 328.48 119.19 336.82 121.04 345.13 122.76 353.77 124.64 362.75 126.46 371.7 127.49 381.01 128.09 390.66 128.18" stroke-dasharray="2 1" transform="rotate(0, 400, 400)" opacity="0.91"></path><path d="M396.29 139.58C405.7 138.64 415.26 137.27 424.96 135.62 434.68 133.34 444.56 131.18 454.59 129.33 464.65 127.52 474.88 126.47 485.22 126.32 495.62 126.76 506.13 128.36 516.7 131.13 527.27 134.69 537.85 139.41 548.35 145.17 558.75 151.57 568.95 158.8 578.82 166.69 588.4 174.86 597.48 183.42 605.9 192.2 613.79 200.91 620.82 209.63 626.86 218.29 632.16 226.63 636.32 234.81 639.26 242.82 641.43 250.42 642.4 257.87 642.21 265.2 641.5 272.16 639.9 279.09 637.57 286.04 635.31 292.71 632.8 299.5 630.34 306.46 628.7 313.25 627.64 320.29 627.41 327.61 628.64 334.84 631.04 342.41 634.67 350.34 639.89 358.22 646.22 366.5 653.48 375.19 661.72 383.85 670.27 392.94 678.67 402.47 686.89 412 693.93 421.75 699.43 431.71 703.67 441.69 705.87 451.87 705.96 462.23 704.39 472.61 700.74 483.15 695.19 493.79 688.31 504.42 679.97 515.09 670.51 525.72 660.46 536.22 649.86 546.55 639.03 556.59 628.37 566.3 617.93 575.52 607.89 584.08 598.53 592.09 589.77 599.21 581.64 605.3 574.36 610.64 567.67 614.8 561.5 617.71 553.49 620.37 539.41 619.62 532.67 617.28 526.07 615.33 511.28 615.28 502.78 618.93 496.91 623.59 490.52 629.72 483.62 637.24 476.66 646.24 469.19 656.13 461.23 666.46 453.23 677 444.77 686.92 435.88 695.59 426.97 702.83 417.67 707.8 407.99 710.07 398.32 709.92 388.53 706.9 378.67 701.31 368.83 693.91 358.94 684.79 349.03 674.54 339.16 664.01 329.29 653.45 319.47 643.38 309.7 634.44 300 626.67 290.43 620.26 280.95 615.58 271.62 612.29 262.51 610.22 253.55 609.59 244.85 609.72 236.49 610.29 228.32 611.53 220.54 612.6 213.21 613.22 206.14 613.73 199.55 613.36 193.49 611.97 187.71 609.99 182.47 606.84 177.79 602.55 173.34 597.55 169.42 591.47 166.02 584.45 162.73 576.84 159.88 568.47 157.44 559.49 154.94 550.13 152.75 540.36 150.82 530.31 148.66 520.07 146.67 509.7 144.81 499.29 142.62 488.82 140.52 478.38 138.51 468.06 136.15 457.73 133.91 447.54 131.83 437.53 129.51 427.54 127.46 417.72 125.76 408.11 124.02 398.5 122.82 389.31 122.2 380.54 121.78 371.74 122.05 363.32 123.05 355.27 124.37 347.17 126.46 339.39 129.29 331.91 132.48 324.31 136.38 316.95 140.94 309.78 145.76 302.43 151.16 295.18 157.05 287.99 163.06 280.51 169.44 273.01 176.13 265.43 182.78 257.5 189.64 249.43 196.64 241.22 203.47 232.65 210.4 223.94 217.38 215.15 224.13 206.14 230.93 197.16 237.78 188.32 244.38 179.55 251.06 171.14 257.84 163.27 264.39 155.81 271.09 149.14 277.95 143.41 284.64 138.4 291.55 134.48 298.67 131.73 305.69 129.73 312.98 128.84 320.54 128.99 328.03 129.57 335.83 130.89 343.93 132.76 352 134.46 360.39 136.28 369.12 138.01 377.82 138.97 386.87 139.52 396.28 139.59" stroke-dasharray="10 6" transform="rotate(4.04, 400, 400)" opacity="0.83"></path><path d="M402.16 150.99C411.32 150.08 420.63 148.77 430.07 147.18 439.52 144.98 449.12 142.86 458.84 141.01 468.58 139.14 478.44 137.94 488.39 137.55 498.34 137.66 508.35 138.83 518.35 141.09 528.31 144.09 538.2 148.2 547.91 153.32 557.47 159.1 566.75 165.73 575.62 173.07 584.16 180.78 592.14 188.95 599.42 197.45 606.19 205.98 612.1 214.63 617.04 223.3 621.34 231.76 624.57 240.14 626.7 248.39 628.21 256.31 628.69 264.1 628.18 271.77 627.33 279.11 625.77 286.39 623.67 293.64 621.77 300.62 619.76 307.66 617.88 314.8 616.86 321.77 616.43 328.91 616.79 336.27 618.51 343.52 621.28 351.05 625.14 358.89 630.42 366.66 636.67 374.79 643.68 383.27 651.56 391.74 659.67 400.59 667.61 409.84 675.39 419.09 682.07 428.53 687.36 438.13 691.54 447.74 693.86 457.51 694.27 467.4 693.18 477.28 690.16 487.24 685.37 497.23 679.31 507.15 671.84 517.02 663.22 526.74 653.95 536.27 644.04 545.54 633.76 554.39 623.51 562.89 613.3 570.81 603.33 578.02 593.88 584.68 584.88 590.47 576.39 595.25 568.61 599.39 561.36 602.46 554.6 604.43 545.63 606.09 529.83 604.86 522.46 603.08 515.41 602.14 500.36 604.72 492.04 609.63 486.36 614.92 480.25 621.51 473.69 629.27 467.09 638.26 460.04 647.93 452.54 657.85 445 667.84 437.03 677.15 428.64 685.23 420.24 691.95 411.44 696.55 402.28 698.66 393.11 698.57 383.82 695.83 374.45 690.7 365.11 683.89 355.7 675.42 346.27 665.81 336.89 655.82 327.52 645.65 318.2 635.78 308.94 626.79 299.77 618.75 290.74 611.85 281.81 606.48 273.06 602.35 264.54 599.38 256.18 597.8 248.09 597.03 240.36 596.82 232.82 597.39 225.67 598.01 218.97 598.41 209.5 598.85 193.41 595.45 186.84 591.04 182.82 587.2 179.27 582.36 176.2 576.61 173.19 570.33 170.58 563.25 168.32 555.51 165.98 547.4 163.89 538.78 162.03 529.78 159.93 520.56 157.96 511.09 156.11 501.48 153.93 491.78 151.81 482.02 149.78 472.28 147.4 462.52 145.13 452.82 143.02 443.22 140.67 433.63 138.58 424.16 136.82 414.85 135.02 405.53 133.74 396.58 133.02 387.97 132.48 379.35 132.62 371.05 133.45 363.05 134.59 354.99 136.48 347.19 139.09 339.63 142.05 331.94 145.71 324.42 150.02 317.03 154.61 309.45 159.77 301.93 165.43 294.41 171.24 286.63 177.45 278.8 183.98 270.88 190.51 262.66 197.27 254.32 204.21 245.88 211.02 237.17 217.95 228.4 224.95 219.62 231.75 210.73 238.61 201.97 245.52 193.46 252.21 185.11 258.96 177.21 265.79 169.91 272.42 163.09 279.16 157.09 286.02 152.02 292.73 147.66 299.61 144.34 306.68 142.13 313.63 140.6 320.82 140.07 328.25 140.48 335.6 141.25 343.23 142.65 351.15 144.52 359.02 146.18 367.2 147.92 375.7 149.56 384.18 150.45 392.99 150.95 402.15 150.99" stroke-dasharray="8 11" transform="rotate(8.08, 400, 400)" opacity="0.57"></path><path d="M407.89 162.4C416.78 161.52 425.81 160.27 434.93 158.75 444.07 156.65 453.32 154.59 462.65 152.74 472 150.84 481.41 149.52 490.85 148.92 500.27 148.74 509.68 149.52 519.01 151.3 528.26 153.75 537.36 157.25 546.22 161.73 554.89 166.86 563.2 172.86 571.04 179.59 578.55 186.74 585.46 194.44 591.66 202.53 597.38 210.76 602.27 219.2 606.24 227.75 609.66 236.19 612.12 244.63 613.61 253 614.62 261.13 614.75 269.17 614.08 277.1 613.22 284.76 611.81 292.34 610.02 299.87 608.53 307.16 607.04 314.46 605.77 321.81 605.33 328.99 605.49 336.28 606.39 343.73 608.54 351.06 611.63 358.61 615.69 366.4 620.99 374.13 627.11 382.14 633.88 390.44 641.39 398.73 649.06 407.35 656.56 416.29 663.89 425.24 670.23 434.32 675.3 443.5 679.39 452.68 681.81 461.95 682.49 471.25 681.83 480.54 679.4 489.82 675.31 499.02 670.05 508.14 663.4 517.1 655.63 525.81 647.17 534.32 637.98 542.46 628.34 550.1 618.59 557.41 608.74 564.08 598.99 570.01 589.59 575.47 580.5 580.07 571.81 583.74 563.69 586.9 556.01 589.13 548.77 590.43 542.11 591.38 535.81 591.57 529.79 591.14 521.54 590.44 505.92 589.61 498.11 590.85 493.01 593.12 487.66 596.4 482.01 600.78 476.41 606.61 470.46 613.53 464.13 621.43 457.8 630.33 451.07 639.71 443.94 649.19 436.79 658.63 429.24 667.34 421.32 674.83 413.37 681.05 405.06 685.29 396.4 687.25 387.74 687.2 378.96 684.73 370.11 680.05 361.28 673.81 352.39 665.97 343.49 657 334.64 647.58 325.81 637.85 317.05 628.25 308.35 619.32 299.76 611.12 291.33 603.86 283 597.91 274.86 593.05 266.98 589.26 259.25 586.77 251.81 585.11 244.71 584.07 237.81 583.88 231.3 583.91 225.22 583.91 216.65 584.12 202.15 581.66 196.25 578.32 191 573.5 182.64 558.9 179.33 549.4 177.1 542.49 175.1 535.01 173.28 527.08 171.22 518.92 169.26 510.43 167.4 501.7 165.21 492.85 163.07 483.85 161.01 474.77 158.62 465.66 156.33 456.52 154.18 447.4 151.81 438.28 149.68 429.21 147.88 420.21 146.03 411.21 144.68 402.49 143.87 394.06 143.22 385.6 143.22 377.39 143.89 369.42 144.86 361.38 146.54 353.54 148.92 345.86 151.64 338.07 155.05 330.38 159.09 322.76 163.42 314.97 168.32 307.19 173.72 299.39 179.3 291.37 185.29 283.28 191.62 275.11 198 266.71 204.63 258.23 211.45 249.7 218.2 241 225.08 232.3 232.06 223.68 238.88 215.06 245.78 206.65 252.72 198.58 259.48 190.76 266.3 183.45 273.18 176.8 279.88 170.65 286.67 165.33 293.56 160.94 300.3 157.22 307.19 154.49 314.23 152.78 321.15 151.67 328.28 151.47 335.62 152.11 342.87 153.01 350.38 154.47 358.14 156.32 365.85 157.93 373.85 159.58 382.13 161.12 390.4 161.93 398.98 162.38 407.88 162.4" stroke-dasharray="2 9" transform="rotate(12.12, 400, 400)" opacity="0.31"></path><path d="M413.07 173.81C421.69 172.97 430.39 171.78 439.16 170.34 447.94 168.32 456.78 166.34 465.65 164.52 474.53 162.61 483.42 161.2 492.27 160.42 501.08 159.98 509.82 160.41 518.41 161.74 526.9 163.68 535.16 166.59 543.12 170.45 550.87 174.92 558.22 180.24 565.05 186.32 571.57 192.86 577.48 199.98 582.67 207.57 587.45 215.37 591.44 223.47 594.59 231.76 597.28 240.05 599.13 248.4 600.14 256.75 600.81 264.96 600.74 273.12 600.04 281.2 599.27 289.08 598.11 296.88 596.7 304.63 595.66 312.18 594.7 319.71 594 327.25 594.14 334.63 594.83 342.08 596.23 349.62 598.75 357.05 602.1 364.64 606.29 372.39 611.58 380.09 617.55 388 624.06 396.13 631.2 404.25 638.45 412.62 645.5 421.24 652.41 429.86 658.4 438.53 663.25 447.23 667.24 455.93 669.72 464.62 670.63 473.28 670.36 481.89 668.46 490.42 665.02 498.77 660.5 507.03 654.66 515.03 647.71 522.71 640.07 530.18 631.65 537.21 622.69 543.71 613.53 549.88 604.15 555.42 594.74 560.23 585.54 564.64 576.51 568.26 567.76 571.06 559.46 573.48 551.5 575.12 543.91 576.01 536.82 576.73 530.06 576.89 523.58 576.64 514.61 576.54 497.76 577.82 489.54 580.33 484.21 583.39 478.73 587.39 473.03 592.37 467.42 598.61 461.53 605.77 455.35 613.7 449.19 622.43 442.69 631.47 435.86 640.48 429.03 649.35 421.85 657.46 414.33 664.38 406.8 670.12 398.94 674.03 390.77 675.84 382.6 675.84 374.33 673.61 366 669.36 357.69 663.66 349.35 656.45 341.01 648.11 332.72 639.27 324.46 630.03 316.29 620.76 308.2 611.98 300.22 603.73 292.41 596.23 284.71 589.83 277.22 584.37 269.99 579.85 262.9 576.53 256.11 574.01 249.67 572.14 240.45 570.82 224.3 569.65 217.46 568.77 211.29 567.4 201.23 560.99 197.24 555.72 194.68 551.61 192.42 546.76 190.43 541.25 188.29 535.44 186.34 529.03 184.55 522.13 182.5 515.01 180.54 507.49 178.66 499.65 176.45 491.69 174.29 483.49 172.2 475.13 169.79 466.71 167.48 458.18 165.32 449.59 162.93 440.99 160.78 432.35 158.93 423.7 157.05 415.05 155.64 406.59 154.74 398.33 154 390.05 153.88 381.94 154.39 373.99 155.18 365.99 156.66 358.11 158.8 350.33 161.28 342.45 164.42 334.62 168.17 326.81 172.22 318.87 176.83 310.9 181.95 302.9 187.26 294.73 193 286.5 199.1 278.22 205.27 269.78 211.71 261.3 218.38 252.82 225.01 244.27 231.81 235.8 238.72 227.49 245.51 219.27 252.39 211.34 259.34 203.82 266.13 196.61 272.99 189.96 279.9 184 286.65 178.56 293.49 173.93 300.41 170.21 307.19 167.09 314.08 164.91 321.11 163.67 328.03 162.94 335.11 163.02 342.37 163.85 349.56 164.86 356.96 166.34 364.58 168.15 372.15 169.69 379.98 171.24 388.05 172.67 396.11 173.41 404.45 173.81 413.06 173.81" stroke-dasharray="5 10" transform="rotate(16.16, 400, 400)" opacity="0.39"></path><path d="M417.37 185.22C425.67 184.41 434.02 183.29 442.39 181.93 450.76 180.02 459.14 178.11 467.5 176.35 475.85 174.45 484.16 172.98 492.37 172.06 500.52 171.4 508.54 171.51 516.35 172.45 524.04 173.9 531.45 176.26 538.51 179.5 545.36 183.31 551.78 187.96 557.67 193.36 563.26 199.23 568.25 205.71 572.57 212.71 576.52 219.99 579.75 227.62 582.23 235.52 584.36 243.5 585.75 251.62 586.43 259.82 586.89 267.95 586.77 276.08 586.14 284.18 585.57 292.15 584.72 300.07 583.73 307.94 583.16 315.65 582.73 323.33 582.6 331 583.26 338.54 584.45 346.1 586.27 353.7 589.11 361.22 592.68 368.82 596.95 376.52 602.19 384.18 607.99 391.98 614.22 399.92 620.99 407.85 627.82 415.95 634.44 424.21 640.93 432.48 646.59 440.71 651.2 448.89 655.07 457.06 657.6 465.14 658.7 473.1 658.76 481.01 657.34 488.74 654.51 496.23 650.68 503.61 645.61 510.68 639.47 517.36 632.63 523.84 625 529.84 616.77 535.3 608.27 540.48 599.45 545.03 590.48 548.91 581.6 552.48 572.78 555.35 564.12 557.52 555.78 559.45 547.7 560.75 539.91 561.48 532.52 562.19 525.42 562.53 518.58 562.63 512.12 563.07 505.86 563.57 499.74 564.3 493.92 565.79 488.15 567.82 482.38 570.51 476.8 574.28 471.14 578.89 465.35 584.36 459.65 590.89 453.77 598.18 447.67 606.05 441.6 614.55 435.27 623.2 428.68 631.71 422.1 640 415.22 647.52 408.07 653.9 400.91 659.17 393.48 662.76 385.77 664.43 378.07 664.47 370.3 662.48 362.5 658.63 354.71 653.45 346.91 646.84 339.15 639.13 331.43 630.89 323.77 622.16 316.21 613.29 308.72 604.74 301.37 596.55 294.2 588.92 287.14 582.2 280.29 576.26 273.71 571.14 267.26 567.08 261.11 563.77 255.3 561.1 246.99 558.6 232.5 555.7 226.38 554.41 216.27 550.31 204.59 537.92 201.61 531.28 199.53 526.41 197.61 520.96 195.82 514.99 193.77 508.84 191.79 502.23 189.88 495.26 187.65 488.17 185.47 480.77 183.35 473.12 180.93 465.43 178.61 457.54 176.42 449.49 174.03 441.44 171.87 433.26 169.99 424.99 168.08 416.72 166.62 408.55 165.65 400.49 164.82 392.42 164.58 384.44 164.94 376.55 165.56 368.62 166.83 360.74 168.74 352.91 170.97 345 173.83 337.1 177.29 329.2 181.04 321.19 185.35 313.14 190.15 305.07 195.17 296.87 200.61 288.64 206.43 280.38 212.35 272.04 218.57 263.72 225.03 255.46 231.5 247.22 238.15 239.12 244.93 231.25 251.65 223.54 258.47 216.2 265.37 209.31 272.15 202.78 279 196.84 285.91 191.59 292.68 186.86 299.53 182.92 306.46 179.83 313.26 177.3 320.16 175.63 327.16 174.8 334.07 174.41 341.11 174.73 348.3 175.7 355.42 176.78 362.72 178.26 370.19 180.01 377.63 181.47 385.28 182.91 393.14 184.23 400.98 184.9 409.05 185.24 417.36 185.22" stroke-dasharray="2 1" transform="rotate(20.200000000000003, 400, 400)" opacity="0.27"></path><path d="M420.48 196.63C428.44 195.86 436.4 194.8 444.33 193.53 452.25 191.72 460.14 189.91 467.95 188.21 475.74 186.35 483.42 184.85 490.96 183.82 498.43 182.98 505.71 182.83 512.73 183.4 519.63 184.41 526.21 186.25 532.4 188.91 538.41 192.09 543.96 196.06 548.98 200.77 553.75 205.94 557.94 211.74 561.5 218.08 564.77 224.74 567.4 231.81 569.35 239.21 571.06 246.75 572.15 254.5 572.65 262.39 573.03 270.29 572.96 278.25 572.51 286.23 572.2 294.13 571.71 302.03 571.17 309.89 571.08 317.65 571.17 325.38 571.56 333.08 572.7 340.68 574.33 348.28 576.52 355.89 579.62 363.42 583.34 370.99 587.67 378.61 592.81 386.18 598.42 393.83 604.37 401.55 610.77 409.27 617.18 417.07 623.38 424.94 629.47 432.82 634.79 440.59 639.17 448.22 642.91 455.84 645.44 463.3 646.7 470.55 647.04 477.76 646.05 484.72 643.77 491.37 640.59 497.92 636.25 504.11 630.88 509.87 624.84 515.46 618 520.57 610.52 525.13 602.72 529.49 594.52 533.26 586.1 536.42 577.65 539.38 569.17 541.74 560.74 543.52 552.52 545.19 544.46 546.38 536.6 547.16 529.07 548.06 521.76 548.73 514.68 549.32 507.92 550.33 501.35 551.5 494.94 552.98 488.79 555.21 482.73 557.99 476.72 561.39 470.9 565.77 465.05 570.87 459.14 576.7 453.34 583.42 447.41 590.72 441.34 598.46 435.33 606.65 429.12 614.88 422.72 622.86 416.33 630.58 409.72 637.52 402.89 643.37 396.06 648.2 389.01 651.49 381.74 653.02 374.48 653.09 367.19 651.32 359.9 647.85 352.63 643.17 345.37 637.14 338.18 630.05 331.02 622.42 323.95 614.23 317.01 605.81 310.12 597.57 303.4 589.53 296.87 581.89 290.42 574.97 284.21 568.68 278.26 563.08 272.43 558.4 266.89 554.39 261.67 550.99 254.21 547.33 241.23 542.5 235.75 540.6 226.58 536.34 215.71 525.51 212.83 519.87 209.83 513.43 204 497.72 201.05 488.64 198.8 482.36 196.59 475.71 194.45 468.77 192.02 461.77 189.69 454.51 187.5 447.03 185.11 439.53 182.94 431.83 181.05 423.97 179.12 416.1 177.62 408.25 176.59 400.44 175.68 392.62 175.33 384.82 175.54 377.04 176 369.24 177.07 361.44 178.75 353.65 180.72 345.8 183.3 337.93 186.46 330.04 189.9 322.08 193.88 314.08 198.35 306.06 203.04 297.99 208.16 289.9 213.67 281.83 219.3 273.75 225.24 265.73 231.45 257.84 237.69 250.04 244.14 242.44 250.74 235.13 257.32 228.05 264.01 221.36 270.81 215.18 277.52 209.36 284.31 204.16 291.16 199.64 297.92 195.6 304.74 192.32 311.63 189.84 318.42 187.85 325.29 186.63 332.25 186.17 339.12 186.06 346.11 186.58 353.2 187.65 360.24 188.77 367.42 190.22 374.74 191.89 382.03 193.25 389.49 194.58 397.1 195.79 404.71 196.37 412.5 196.67 420.47 196.63" stroke-dasharray="0 1" transform="rotate(24.24, 400, 400)" opacity="0.20"></path><path d="M422.19 208.04C429.79 207.31 437.33 206.32 444.78 205.13 452.24 203.44 459.6 201.73 466.83 200.11 474.03 198.3 481.09 196.8 487.94 195.7 494.73 194.73 501.28 194.34 507.53 194.61 516.57 195.91 532.48 202.95 539.13 208.63 543.19 213.09 546.71 218.18 549.66 223.82 552.39 229.8 554.55 236.22 556.14 243.02 557.57 250.01 558.48 257.26 558.93 264.71 559.35 272.23 559.42 279.87 559.22 287.58 559.23 295.27 559.13 303 559.05 310.71 559.43 318.37 560.01 326.02 560.89 333.64 562.45 341.2 564.46 348.73 566.97 356.25 570.27 363.72 574.1 371.18 578.42 378.64 583.45 386.08 588.85 393.52 594.49 400.98 600.53 408.43 606.54 415.9 612.32 423.36 618.01 430.83 623 438.12 627.14 445.2 630.74 452.27 633.25 459.11 634.63 465.68 635.22 472.21 634.61 478.45 632.83 484.33 630.24 490.13 626.57 495.54 621.93 500.51 616.66 505.35 610.6 509.72 603.89 513.59 596.82 517.3 589.31 520.5 581.49 523.17 573.58 525.73 565.53 527.81 557.45 529.43 549.49 531.06 541.59 532.34 533.83 533.35 526.29 534.58 518.92 535.71 511.73 536.87 504.79 538.5 498.03 540.35 491.41 542.56 485.03 545.48 478.74 548.92 472.54 552.94 466.51 557.8 460.5 563.28 454.48 569.36 448.57 576.15 442.6 583.38 436.55 590.9 430.56 598.73 424.44 606.49 418.19 613.95 411.97 621.09 405.58 627.46 399.05 632.81 392.51 637.21 385.81 640.21 378.96 641.61 372.11 641.71 365.27 640.15 358.48 637.04 351.69 632.82 344.96 627.36 338.33 620.88 331.72 613.85 325.22 606.23 318.87 598.3 312.57 590.43 306.44 582.63 300.52 575.09 294.67 568.1 289.06 561.59 283.71 555.63 278.45 550.45 273.47 545.85 268.81 541.8 262.11 537.08 250.47 530.25 245.54 527.58 237.14 522.64 226.9 512.43 224.06 507.47 221.07 501.87 215.17 488.14 212.16 480.09 209.89 474.51 207.66 468.55 205.49 462.25 203.07 455.9 200.74 449.25 198.54 442.31 196.17 435.37 194.01 428.16 192.11 420.72 190.18 413.29 188.65 405.8 187.56 398.28 186.59 390.76 186.13 383.2 186.21 375.62 186.51 368.02 187.38 360.39 188.83 352.73 190.55 345.05 192.85 337.32 195.7 329.57 198.82 321.8 202.46 313.99 206.58 306.19 210.93 298.37 215.7 290.58 220.85 282.85 226.16 275.17 231.78 267.61 237.68 260.22 243.65 252.98 249.84 245.99 256.2 239.34 262.57 232.94 269.09 226.98 275.71 221.54 282.29 216.47 288.96 211.99 295.7 208.19 302.37 204.82 309.11 202.16 315.91 200.24 322.64 198.73 329.44 197.91 336.3 197.77 343.11 197.89 349.99 198.55 356.96 199.69 363.89 200.82 370.93 202.22 378.06 203.79 385.17 205.04 392.41 206.26 399.76 207.35 407.11 207.85 414.58 208.1 422.18 208.04" stroke-dasharray="5 8" transform="rotate(28.28, 400, 400)" opacity="0.45"></path><path d="M422.39 219.45C429.59 218.76 436.68 217.83 443.65 216.73 450.61 215.16 457.44 213.57 464.09 212.04 470.71 210.3 477.13 208.82 483.32 207.68 492.38 206.33 508.83 206.81 516.05 208.91 522.65 212.27 533.3 222.93 537.27 230.04 539.59 235.3 541.43 241.02 542.79 247.14 544.07 253.49 544.93 260.14 545.43 267.03 545.97 274.05 546.27 281.24 546.37 288.53 546.72 295.87 547.04 303.27 547.41 310.69 548.23 318.12 549.26 325.54 550.57 332.95 552.51 340.33 554.84 347.69 557.59 355.01 561.04 362.3 564.92 369.57 569.21 376.8 574.09 384.02 579.26 391.2 584.6 398.34 590.27 405.48 595.88 412.58 601.26 419.62 606.56 426.65 611.23 433.45 615.13 440 618.57 446.53 621.05 452.79 622.52 458.74 623.16 467.45 618.11 482.99 612.63 489.71 608.1 493.96 602.8 497.78 596.85 501.13 590.53 504.41 583.73 507.24 576.57 509.64 569.27 512.01 561.75 514.01 554.13 515.67 546.54 517.42 538.94 518.95 531.39 520.33 523.99 521.99 516.69 523.65 509.53 525.42 502.56 527.67 495.72 530.19 489.02 533.06 482.5 536.59 476.08 540.6 469.77 545.11 463.6 550.34 457.47 556.08 451.38 562.28 445.4 569.04 439.39 576.11 433.37 583.34 427.4 590.76 421.36 598.04 415.25 604.94 409.17 611.52 402.99 617.34 396.72 622.2 390.45 626.2 384.08 628.92 377.61 630.2 371.14 630.33 364.73 628.96 358.4 626.18 352.08 622.41 345.85 617.49 339.73 611.6 333.64 605.17 327.69 598.13 321.9 590.72 316.14 583.28 310.58 575.8 305.23 568.45 299.93 561.51 294.86 554.9 290.06 548.72 285.32 543.18 280.85 538.12 276.68 533.54 270.65 527.86 260.16 519.11 255.69 515.59 247.91 509.6 238.1 499.18 235.28 494.61 232.26 489.57 226.26 477.3 223.2 470.09 220.91 465.09 218.67 459.71 216.48 453.98 214.07 448.21 211.75 442.11 209.56 435.7 207.21 429.27 205.06 422.55 203.17 415.56 201.24 408.57 199.7 401.47 198.57 394.3 197.53 387.13 196.99 379.88 196.94 372.58 197.09 365.28 197.78 357.91 199 350.51 200.47 343.1 202.49 335.64 205.03 328.17 207.83 320.71 211.12 313.24 214.88 305.79 218.86 298.38 223.26 291.03 228.03 283.78 232.97 276.63 238.24 269.64 243.78 262.87 249.43 256.28 255.3 249.98 261.37 244.05 267.48 238.39 273.74 233.19 280.13 228.5 286.51 224.16 292.99 220.4 299.54 217.28 306.07 214.54 312.66 212.45 319.31 211.02 325.92 209.94 332.58 209.46 339.3 209.58 345.98 209.88 352.72 210.64 359.53 211.8 366.3 212.91 373.14 214.24 380.06 215.7 386.96 216.83 393.94 217.93 400.99 218.9 408.05 219.33 415.18 219.52 422.38 219.45" stroke-dasharray="5 3" transform="rotate(32.32, 400, 400)" opacity="0.54"></path><path d="M421.06 230.86C427.84 230.21 434.47 229.35 440.95 228.34 447.41 226.89 453.69 225.42 459.77 223.99 468.73 221.63 485.33 218.29 492.83 217.74 499.87 218.03 511.91 222.08 516.81 225.88 521.11 230.81 527.42 243.87 529.5 251.77 530.73 257.41 531.65 263.39 532.28 269.64 533.01 276.04 533.57 282.65 534.01 289.42 534.72 296.26 535.44 303.21 536.24 310.22 537.47 317.26 538.91 324.33 540.6 331.39 542.85 338.46 545.44 345.52 548.39 352.54 551.93 359.55 555.82 366.53 560.03 373.44 564.73 380.36 569.65 387.21 574.69 393.99 579.99 400.76 585.21 407.46 590.21 414.05 595.13 420.64 599.47 426.96 603.13 433 607.61 441.89 611.29 458.04 610.34 465.24 607.53 472 596.85 483.53 589.36 488.29 583.79 491.31 577.72 493.97 571.26 496.28 564.61 498.64 557.7 500.73 550.61 502.58 543.5 504.59 536.3 506.48 529.1 508.31 521.97 510.46 514.88 512.67 507.88 515.05 501 517.89 494.22 521.01 487.54 524.47 481.01 528.52 474.57 532.97 468.23 537.86 462 543.33 455.84 549.2 449.74 555.41 443.73 562.05 437.73 568.88 431.76 575.76 425.83 582.74 419.89 589.5 413.93 595.85 407.99 601.87 402.01 607.16 395.98 611.55 389.97 615.17 383.9 617.63 377.79 618.79 371.67 618.94 365.66 617.74 359.76 615.28 353.87 611.94 348.1 607.53 342.48 602.21 336.86 596.37 331.41 589.93 326.13 583.06 320.88 576.1 315.83 569.01 310.99 561.94 306.19 555.14 301.62 548.56 297.3 542.29 293.01 536.52 288.99 531.13 285.23 526.14 279.78 519.68 270.25 509.17 266.14 504.82 258.82 497.53 249.29 486.28 246.44 481.83 243.39 477.08 237.27 465.78 234.16 459.19 230.73 452.2 223.86 436.42 220.54 427.68 218.23 421.74 216.11 415.5 214.23 408.95 212.31 402.41 210.77 395.74 209.6 388.97 208.52 382.2 207.9 375.33 207.73 368.39 207.74 361.46 208.26 354.46 209.26 347.42 210.5 340.4 212.24 333.34 214.48 326.28 216.95 319.25 219.89 312.24 223.28 305.28 226.88 298.4 230.88 291.6 235.26 284.96 239.81 278.43 244.68 272.1 249.84 266.03 255.11 260.16 260.63 254.6 266.35 249.43 272.13 244.53 278.08 240.08 284.16 236.13 290.27 232.5 296.49 229.42 302.8 226.93 309.1 224.76 315.48 223.18 321.91 222.19 328.33 221.46 334.8 221.27 341.31 221.58 347.8 222.01 354.34 222.83 360.92 223.98 367.48 225.04 374.09 226.27 380.74 227.61 387.38 228.63 394.07 229.59 400.79 230.45 407.51 230.8 414.27 230.95 421.05 230.86" stroke-dasharray="9 9" transform="rotate(36.36, 400, 400)" opacity="0.32"></path><path d="M418.29 242.27C424.64 241.66 430.8 240.87 436.78 239.95 442.74 238.63 448.5 237.28 454.04 235.96 465.03 232.73 474.99 230.47 483.73 229.63 492.2 229.4 499.28 231.3 504.85 235.35 510.13 240.62 513.96 247.98 516.45 257.06 519.08 267.1 520.87 278.42 522.21 290.57 524.64 303.17 527.43 316.23 530.97 329.41 536.47 342.73 543.14 356.02 550.86 369.05 555.37 375.58 560.03 382.04 564.76 388.4 569.69 394.77 574.53 401.04 579.15 407.18 583.7 413.32 587.73 419.18 591.14 424.75 594.24 430.31 596.58 435.56 598.14 440.5 599.75 450.32 597.94 458.82 592.99 465.96 586.12 473.04 576.72 478.86 565.48 483.57 553.38 488.64 540.28 493.14 526.76 497.49 513.32 503.1 499.9 509.39 486.76 516.76 474.02 526.13 461.54 536.86 449.38 548.71 437.52 561.79 425.77 574.82 414.14 586.67 408.36 592.13 402.58 596.92 396.8 600.86 388.14 605.22 370.88 607.03 362.56 604.35 357.06 601.4 351.71 597.47 346.53 592.71 336.18 581.79 326.54 568.98 317.74 555.48 309.02 542.64 301.2 530.51 294.38 519.55 287.58 510.42 281.72 502.45 276.8 495.37 271.67 489.68 267.26 484.14 263.49 478.34 259.14 473.07 255.14 466.94 251.43 459.75 246.86 452.59 242.44 444.16 238.28 434.45 235.91 429.58 233.64 424.4 231.49 418.91 229.23 413.41 227.14 407.61 225.28 401.52 223.4 395.43 221.86 389.2 220.67 382.87 219.56 376.54 218.86 370.11 218.59 363.62 218.54 350.66 220.39 337.49 224.05 324.36 228.57 311.43 234.84 298.75 242.59 286.69 251.01 275.18 260.65 264.67 271.21 255.61 282.08 247.55 293.62 241.29 305.58 237.14 317.6 234.06 329.94 232.97 342.42 233.75 354.88 234.79 367.51 236.87 380.19 239.52 386.52 240.41 392.87 241.25 399.23 241.99 405.58 242.27 411.94 242.37 418.28 242.27" stroke-dasharray="1 11" transform="rotate(40.400000000000006, 400, 400)" opacity="0.83"></path><path d="M414.28 253.68C426.06 252.08 437.05 250.06 447.12 247.94 457.11 244.94 466.06 242.74 473.83 241.73 481.4 241.1 487.72 242.31 492.72 245.4 497.57 249.49 501.23 255.51 503.83 263.17 506.7 271.71 508.99 281.57 511.01 292.34 514.08 303.6 517.54 315.44 521.66 327.51 527.46 339.78 534.2 352.1 541.72 364.21 550.59 376.37 559.61 388.26 568.09 399.65 576.34 411.03 582.41 421.32 585.89 430.45 587.76 439.53 586.61 447.45 582.65 454.21 577.01 461.02 568.99 466.86 559.17 471.9 548.45 477.42 536.62 482.66 524.19 487.96 511.66 494.47 498.96 501.69 486.39 509.86 474.06 519.67 461.91 530.53 450.05 542.12 438.43 554.52 426.97 566.61 415.72 577.39 404.56 586.82 393.48 593.32 382.57 595.97 371.65 595.56 361.37 591.02 351.79 583.1 342.22 573.32 333.38 561.62 325.37 549.03 317.38 536.75 310.24 524.8 304 513.66 297.7 503.96 292.23 495.21 287.57 487.29 282.63 480.63 278.3 474.27 274.51 467.89 270.14 462.1 266.07 455.76 262.27 448.63 257.67 441.65 253.24 433.64 249.09 424.55 244.27 415.45 239.93 405.23 236.34 393.94 232.66 382.65 230.35 370.88 229.53 358.87 229.23 346.93 230.67 334.86 233.77 322.92 237.65 311.23 243.16 299.91 250.08 289.3 257.64 279.25 266.4 270.26 276.08 262.7 286.11 256.02 296.85 251.02 308.04 247.91 319.35 245.63 331.01 245.06 342.82 246.08 354.65 247.14 366.62 249.06 378.57 251.43 390.54 252.61 402.49 253.43 414.27 253.68" stroke-dasharray="2 4" transform="rotate(44.44, 400, 400)" opacity="0.16"></path><path d="M409.29 265.09C420.16 263.62 430.22 261.82 439.35 259.93 448.42 257.18 456.5 255.1 463.48 253.99 473.21 253.41 487.13 261.47 491.78 270.18 494.98 277.27 497.77 285.66 500.43 295 504.08 304.84 508.09 315.34 512.65 326.18 518.63 337.24 525.33 348.45 532.58 359.54 540.91 370.69 549.26 381.64 557.03 392.14 564.6 402.65 570.24 412.18 573.61 420.69 575.66 429.2 575.07 436.73 571.99 443.33 567.46 450.07 560.74 456.1 552.28 461.61 542.96 467.66 532.45 473.63 521.22 479.8 509.76 487.07 497.97 494.99 486.15 503.7 474.45 513.7 462.84 524.45 451.46 535.58 440.24 547.19 429.19 558.28 418.41 568 407.69 576.44 397.14 582.21 386.85 584.56 376.55 584.27 366.94 580.35 358.07 573.37 349.19 564.69 341.04 554.12 333.69 542.53 326.31 530.98 319.71 519.43 313.93 508.38 308.02 498.39 302.83 489.13 298.34 480.59 293.53 473.12 289.23 466.02 285.39 459.05 280.98 452.69 276.84 446.01 272.95 438.83 268.36 431.84 263.94 424.08 259.82 415.47 255.13 406.87 250.9 397.35 247.4 386.92 243.81 376.5 241.49 365.71 240.53 354.78 240.01 343.92 241.07 333.05 243.66 322.42 246.91 312.05 251.68 302.14 257.77 293.03 264.46 284.43 272.3 276.9 281.05 270.74 290.17 265.32 300.02 261.42 310.34 259.19 320.83 257.56 331.68 257.38 342.7 258.51 353.78 259.54 364.98 261.25 376.13 263.32 387.31 264.26 398.42 264.91 409.29 265.09" stroke-dasharray="7 4" transform="rotate(48.48, 400, 400)" opacity="0.86"></path><path d="M403.67 276.5C413.63 275.16 422.8 273.57 431.09 271.93 439.34 269.45 446.67 267.53 453.02 266.41 461.99 265.45 475.44 271.22 480.44 278.17 483.98 283.91 487.26 290.88 490.48 298.82 494.6 307.21 499.04 316.32 503.91 325.87 509.96 335.64 516.53 345.65 523.45 355.66 531.22 365.74 538.9 375.71 545.97 385.37 552.89 395.02 558.09 403.87 561.32 411.9 563.47 419.94 563.34 427.23 561.02 433.83 557.48 440.61 551.95 446.92 544.8 452.94 536.82 459.49 527.65 466.11 517.68 472.99 507.4 480.8 496.67 489.19 485.78 498.17 474.89 508.11 463.99 518.52 453.25 529.04 442.6 539.77 432.1 549.83 421.87 558.51 411.69 566 401.71 571.08 392.02 573.16 382.34 572.98 373.36 569.6 365.12 563.52 356.85 555.9 349.3 546.47 342.49 535.94 335.62 525.24 329.45 514.29 324 503.57 318.4 493.58 313.4 484.08 309 475.16 304.27 467.11 299.97 459.43 296.06 451.97 291.63 445.07 287.44 438.04 283.48 430.74 278.91 423.65 274.54 416.04 270.48 407.81 265.94 399.61 261.85 390.71 258.46 381.12 254.99 371.53 252.68 361.73 251.61 351.91 250.9 342.17 251.62 332.54 253.72 323.25 256.39 314.21 260.45 305.72 265.73 298.05 271.55 290.84 278.46 284.67 286.25 279.77 294.41 275.44 303.29 272.48 312.66 270.94 322.24 269.81 332.19 269.88 342.32 271.03 352.54 271.96 362.88 273.44 373.16 275.19 383.48 275.91 393.71 276.39 403.67 276.5" stroke-dasharray="8 7" transform="rotate(52.52, 400, 400)" opacity="0.61"></path><path d="M397.8 287.91C406.86 286.7 415.2 285.31 422.75 283.91 430.26 281.73 436.97 280 442.84 278.94 451.24 277.76 464.52 281.71 469.91 287.14 473.78 291.67 477.49 297.35 481.18 303.96 485.65 310.95 490.38 318.7 495.43 326.95 501.43 335.41 507.78 344.21 514.31 353.13 521.5 362.11 528.51 371.1 534.91 379.94 541.19 388.78 545.95 397.03 549 404.65 551.21 412.31 551.44 419.44 549.77 426.1 547.09 432.96 542.63 439.56 536.69 446.03 530 452.98 522.15 460.09 513.46 467.47 504.42 475.58 494.84 484.16 484.99 493.14 475.07 502.8 465.03 512.68 455.07 522.45 445.15 532.23 435.32 541.25 425.73 548.91 416.17 555.49 406.81 559.93 397.74 561.75 388.68 561.66 380.3 558.8 372.62 553.55 364.91 546.94 357.86 538.63 351.5 529.19 345.05 519.45 339.22 509.28 334.02 499.09 328.65 489.37 323.79 479.92 319.44 470.89 314.76 462.52 310.45 454.47 306.48 446.68 302.04 439.37 297.82 432.06 293.84 424.65 289.33 417.46 285.04 409.94 281.07 402.05 276.7 394.2 272.78 385.86 269.52 377.06 266.18 368.26 263.91 359.43 262.76 350.72 261.9 342.08 262.32 333.67 263.97 325.71 266.1 317.95 269.48 310.8 273.98 304.48 278.95 298.52 284.95 293.54 291.77 289.73 298.95 286.33 306.83 284.11 315.2 283.1 323.79 282.31 332.76 282.52 341.94 283.6 351.22 284.38 360.63 285.59 370 287.04 379.41 287.53 388.73 287.86 397.8 287.91" stroke-dasharray="0 9" transform="rotate(56.56, 400, 400)" opacity="0.76"></path><path d="M392.08 299.32C400.27 298.23 407.83 297.05 414.71 295.88 424.66 293.25 441.21 290.32 447.98 290.92 454.49 292.91 466.42 302.84 472.48 310.51 477.18 316.23 482.07 322.69 487.17 329.72 493.01 336.91 499.07 344.52 505.16 352.37 511.75 360.27 518.1 368.32 523.86 376.38 529.5 384.43 533.83 392.11 536.68 399.37 538.87 406.68 539.38 413.68 538.25 420.39 536.3 427.29 532.8 434.1 527.95 440.89 522.47 448.08 515.87 455.47 508.44 463.09 500.65 471.26 492.27 479.77 483.54 488.5 474.69 497.66 465.64 506.85 456.56 515.76 447.49 524.54 438.45 532.51 429.58 539.2 420.73 544.92 412.04 548.77 403.62 550.34 395.19 550.33 387.39 547.93 380.24 543.45 373.04 537.8 366.44 530.58 360.45 522.25 354.37 513.54 348.82 504.27 343.81 494.81 338.62 485.59 333.88 476.46 329.55 467.59 324.93 459.18 320.61 451.01 316.6 443.09 312.18 435.56 307.97 428.1 304.01 420.67 299.6 413.43 295.43 406.05 291.59 398.48 287.42 390.97 283.69 383.17 280.58 375.13 277.4 367.09 275.19 359.18 273.98 351.54 273.01 343.94 273.16 336.69 274.42 329.96 276.06 323.38 278.82 317.44 282.58 312.31 286.74 307.45 291.85 303.49 297.73 300.56 303.92 297.89 310.79 296.23 318.15 295.59 325.71 295.01 333.67 295.25 341.85 296.19 350.14 296.77 358.58 297.71 367 298.85 375.47 299.14 383.88 299.32 392.08 299.32" stroke-dasharray="5 5" transform="rotate(60.599999999999994, 400, 400)" opacity="0.11"></path><path d="M386.89 310.73C394.25 309.77 401.09 308.77 407.36 307.83 416.5 305.63 432.17 303.04 438.87 303.38 445.47 304.71 457.99 312.33 464.38 318.49 469.17 323.08 474.09 328.4 479.11 334.3 484.7 340.32 490.38 346.83 496 353.67 501.98 360.55 507.67 367.7 512.8 375.01 517.84 382.31 521.73 389.44 524.36 396.35 526.48 403.29 527.18 410.11 526.49 416.79 525.16 423.64 522.48 430.52 518.61 437.43 514.21 444.66 508.78 452.08 502.55 459.68 496 467.66 488.82 475.84 481.23 484.09 473.51 492.58 465.51 500.95 457.41 508.92 449.28 516.67 441.11 523.62 433.03 529.38 424.97 534.29 417 537.58 409.24 538.93 401.48 538.99 394.26 537.01 387.6 533.24 380.91 528.48 374.73 522.3 369.06 515.08 363.31 507.43 358.01 499.16 353.17 490.58 348.16 482.06 343.51 473.48 339.22 465.02 334.67 456.86 330.39 448.84 326.38 441.03 322.02 433.5 317.88 426.07 313.98 418.76 309.72 411.6 305.71 404.42 302.03 397.22 298.09 390.07 294.58 382.82 291.64 375.5 288.64 368.19 286.52 361.15 285.28 354.49 284.19 344.76 287.37 328.05 291.55 321.48 297.09 315.95 312.37 309.38 321.66 308.3 328.2 307.82 335.13 308 342.31 308.74 349.58 309.11 357.03 309.78 364.51 310.62 372.03 310.73 379.54 310.78 386.89 310.73" stroke-dasharray="9 9" transform="rotate(64.64, 400, 400)" opacity="0.67"></path><path d="M382.6 322.14C392.23 320.89 409.42 317.98 416.99 316.88 424.27 315.88 437.5 317.03 443.73 319.48 450.31 322.89 463.97 333.62 471.21 340.7 476.46 345.7 481.7 351.2 486.81 357.11 492.17 363.05 497.22 369.35 501.75 375.94 506.19 382.53 509.65 389.1 512.03 395.6 514.05 402.15 514.86 408.69 514.51 415.22 513.68 421.88 511.7 428.63 508.68 435.46 505.24 442.5 500.88 449.71 495.76 457.01 490.36 464.56 484.36 472.2 477.91 479.78 471.32 487.45 464.41 494.9 457.32 501.89 450.19 508.61 442.95 514.56 435.72 519.43 428.5 523.6 421.3 526.38 414.24 527.52 407.17 527.63 400.55 526.03 394.38 522.91 388.19 518.97 382.42 513.78 377.08 507.63 371.66 501.06 366.61 493.85 361.93 486.25 357.11 478.6 352.59 470.77 348.37 462.94 343.94 455.27 339.73 447.65 335.78 440.19 331.55 432.91 327.52 425.73 323.74 418.7 319.68 411.79 315.87 404.93 312.39 398.17 308.72 391.45 305.44 384.75 302.69 378.14 299.9 371.53 297.89 365.31 296.66 359.53 295.44 351.14 297.6 337.15 300.92 331.81 305.39 327.31 318.05 322.03 325.9 321.15 331.44 320.68 337.36 320.73 343.55 321.24 349.82 321.39 356.29 321.78 362.85 322.35 369.43 322.29 376.05 322.22 382.6 322.14" stroke-dasharray="1 1" transform="rotate(68.68, 400, 400)" opacity="0.62"></path><path d="M379.5 333.55C391.06 331.51 401.53 330.03 410.73 329.51 420.17 328 428.84 328.64 436.83 331.65 445.76 334.83 454.71 340.67 463.44 348.77 473.36 357.07 482.84 367.33 490.69 379.11 498.31 390.87 502.23 403.11 502.36 415.45 501.09 428.14 496.03 441.43 488.06 454.84 479.17 468.75 468.15 482.47 456.07 494.62 443.8 505.69 430.94 513.44 418.26 516.11 405.58 515.6 394.19 509.67 384.26 499.88 374.06 488.56 364.92 475.1 356.92 461.07 348.23 447.22 340.25 433.36 333.28 420.15 325.49 407.25 318.72 394.64 313.75 382.81 308.63 370.97 306.41 360.92 306.99 353.02 308.23 345.23 312.4 339.75 318.95 336.81 326.14 333.79 335.36 332.83 345.78 333.63 356.45 333.11 367.94 333.16 379.5 333.55" stroke-dasharray="7 3" transform="rotate(72.72, 400, 400)" opacity="0.59"></path><path d="M377.8 344.96C387.86 343.27 397.29 342.24 405.86 342.08 414.64 341.01 422.96 341.67 430.77 344.24 439.27 346.75 447.71 351.49 455.77 358.25 464.63 365.09 472.91 373.82 479.63 384.2 486.18 394.58 489.67 405.7 490.05 417.09 489.45 428.69 485.72 440.83 479.48 452.9 472.52 465.12 463.59 476.92 453.51 487.08 443.24 496.25 432.2 502.56 421.04 504.7 409.87 504.43 399.6 499.74 390.42 491.79 381.04 482.53 372.46 471.21 364.82 459.12 356.67 446.95 349.16 434.53 342.61 422.63 335.48 410.89 329.33 399.52 324.81 389.06 320.18 378.61 318.03 369.96 318.27 363.32 318.95 356.68 322.11 352.06 327.32 349.52 332.99 346.73 340.47 345.6 349.14 345.88 357.98 345.02 367.73 344.75 377.8 344.96" stroke-dasharray="5 2" transform="rotate(76.76, 400, 400)" opacity="0.91"></path><path d="M377.6 356.37C386.23 355.01 394.57 354.36 402.39 354.53 410.37 353.92 418.11 354.7 425.46 357 433.27 359.13 440.97 363.06 448.17 368.73 455.87 374.39 462.93 381.78 468.57 390.77 474.09 399.75 477.1 409.55 477.62 419.66 477.49 429.88 474.83 440.51 470.06 450.9 464.79 461.24 457.76 471.02 449.56 479.24 441.21 486.61 431.98 491.62 422.38 493.29 412.78 493.21 403.71 489.61 395.41 483.35 386.99 476.04 379.12 466.87 372.03 456.83 364.59 446.58 357.71 435.94 351.73 425.61 345.35 415.34 339.88 405.4 335.87 396.33 330.76 383.57 331.16 366.52 336.37 362.16 340.72 359.5 346.64 358.15 353.7 357.95 360.87 356.83 368.98 356.31 377.6 356.37" stroke-dasharray="7 4" transform="rotate(80.80000000000001, 400, 400)" opacity="0.63"></path><path d="M378.94 367.78C386.15 366.72 393.34 366.4 400.24 366.83 407.26 366.65 414.19 367.59 420.79 369.73 427.69 371.64 434.41 374.99 440.6 379.74 447.08 384.44 452.91 390.61 457.51 398.18 462.03 405.76 464.54 414.06 465.1 422.63 465.26 431.23 463.43 440.07 459.9 448.58 456.04 456.94 450.68 464.69 444.23 471.07 437.66 476.79 430.19 480.63 422.2 481.88 414.2 481.93 406.44 479.28 399.19 474.54 391.86 469.02 384.9 461.91 378.55 453.95 371.98 445.75 365.9 437.06 360.62 428.5 355.11 419.93 350.39 411.58 346.93 403.94 342.5 393.18 342.21 378.56 346.08 374.51 351.6 371.17 368.44 368.18 378.94 367.78" stroke-dasharray="3 9" transform="rotate(84.84, 400, 400)" opacity="0.89"></path><path d="M381.71 379.19C393.33 376.99 405.6 378 416.64 382.16 428.32 385.56 439.29 393.51 446.45 405.77 453.41 418.02 453.96 432.5 449.1 445.69 443.49 458.28 433.25 467.96 420.5 470.47 407.75 469.99 395.06 461.94 384.39 450.27 373.27 437.77 363.62 423.54 357.99 411.19 352.18 398.83 352 390.48 356.41 386.34 361.14 381.25 370.09 378.77 381.71 379.19" stroke-dasharray="3 8" transform="rotate(88.88, 400, 400)" opacity="0.15"></path><path d="M385.73 390.6C394.53 389.16 404.15 390.44 412.85 394.08 421.85 397.2 430.14 403.53 435.39 412.82 440.54 422.1 441.1 432.7 437.79 442.02 434.11 450.87 426.89 457.47 417.4 459.06 407.91 458.98 398.05 453.66 389.59 445.62 380.95 437 373.43 426.74 369.04 417.39 364.39 404.66 373.7 391.77 385.73 390.6" stroke-dasharray="8 5" transform="rotate(92.92, 400, 400)" opacity="0.23"></path><path d="M390.72 402.01C402.6 399.73 417.51 406.18 424.34 418.68 430.96 431.17 425.65 445.21 413.12 447.65 400.58 447.18 386.07 434.54 380.1 421.99 373.96 409.43 378.83 401.58 390.72 402.01" stroke-dasharray="8 3" transform="rotate(96.96, 400, 400)" opacity="0.53"></path></g></svg>